<svg width="19" height="18" viewBox="0 0 19 18" fill="none" xmlns="http://www.w3.org/2000/svg">
<path d="M6.9905 5.95772H7.99434V13.9885H6.9905V5.95772ZM8.99819 5.95772H10.002V13.9885H8.99819V5.95772ZM11.0059 5.95772H12.0097V13.9885H11.0059V5.95772ZM2.9751 2.94617H16.0251V3.95002H2.9751V2.94617Z" fill="#D55252"/>
<path d="M11.9767 3.44808H11.0398V2.44423C11.0398 2.14308 10.8056 1.90885 10.5044 1.90885H8.49672C8.19557 1.90885 7.96134 2.14308 7.96134 2.44423V3.44808H7.02441V2.44423C7.02441 1.64115 7.69364 0.971924 8.49672 0.971924H10.5044C11.3075 0.971924 11.9767 1.64115 11.9767 2.44423V3.44808Z" fill="#D55252"/>
<path d="M12.5117 17H6.48863C5.68555 17 4.98285 16.3307 4.91593 15.5277L3.979 3.48147L4.98285 3.41455L5.91978 15.4607C5.95324 15.7619 6.22093 15.9961 6.48863 15.9961H12.5117C12.8129 15.9961 13.0806 15.7284 13.0806 15.4607L14.0175 3.41455L15.0213 3.48147L14.0844 15.5277C14.0175 16.3642 13.3148 17 12.5117 17Z" fill="#D55252"/>
</svg>
