<svg width="15" height="16" viewBox="0 0 15 16" fill="none" xmlns="http://www.w3.org/2000/svg">
<g clip-path="url(#clip0_167_37)">
<path d="M14.6121 7.89663C14.601 7.84861 14.59 7.82179 14.5801 7.79691C14.5602 7.75042 14.5411 7.71537 14.5188 7.67558C14.4366 7.53263 14.3047 7.33901 14.1239 7.09546C13.8539 6.73253 13.4821 6.27269 13.061 5.81889C12.6394 5.36509 12.1718 4.91821 11.6957 4.58079C11.0224 4.1043 10.3677 3.73379 9.69715 3.48201C9.02709 3.23004 8.3412 3.0992 7.62353 3.09961C6.90587 3.0992 6.21998 3.23004 5.54989 3.48204C4.87915 3.73379 4.22465 4.1043 3.55134 4.5806C2.84316 5.08395 2.14584 5.831 1.60725 6.4799C1.3386 6.80436 1.11217 7.10328 0.948872 7.33644C0.866868 7.45325 0.801134 7.55317 0.75052 7.63752C0.725009 7.68037 0.703598 7.71863 0.683036 7.76147C0.672645 7.78332 0.662692 7.80582 0.651673 7.83738C0.646259 7.8534 0.640407 7.872 0.63502 7.89666C0.629825 7.92154 0.623755 7.95225 0.623536 8.00005C0.623755 8.04765 0.629798 8.07858 0.63502 8.10343C0.645821 8.15145 0.657087 8.17806 0.667013 8.20313C0.686919 8.24964 0.70595 8.2847 0.728235 8.32426C0.810431 8.46724 0.942364 8.66103 1.12319 8.90458C1.39291 9.26754 1.76492 9.72757 2.18607 10.1814C2.60763 10.6352 3.07526 11.0818 3.55134 11.4192C4.22465 11.8957 4.87918 12.2661 5.5499 12.518C6.21998 12.7698 6.90587 12.9009 7.62354 12.9005C8.3412 12.9009 9.02709 12.7698 9.69718 12.518C10.3677 12.2661 11.0224 11.8958 11.6958 11.4195C12.4039 10.9161 13.1013 10.1691 13.6398 9.52017C13.9085 9.1957 14.1349 8.89678 14.2982 8.66362C14.3802 8.54662 14.4459 8.4469 14.4966 8.36232C14.5221 8.3195 14.5435 8.28119 14.5641 8.23859C14.5742 8.21674 14.5844 8.19424 14.5954 8.16244C14.6008 8.14642 14.6067 8.12804 14.6121 8.1034C14.6173 8.07852 14.6233 8.04762 14.6236 8.00002C14.6233 7.95222 14.6173 7.92151 14.6121 7.89663ZM12.6715 9.29089C12.2147 9.81217 11.6713 10.3525 11.184 10.6962C10.5548 11.1415 9.96561 11.471 9.38592 11.6886C8.80561 11.9059 8.23459 12.0141 7.62354 12.0145C7.01251 12.0141 6.44147 11.906 5.86118 11.6886C5.28149 11.471 4.69229 11.1415 4.06311 10.6962C3.46871 10.2774 2.79561 9.56843 2.2897 8.95522C2.03576 8.64872 1.82119 8.36514 1.67433 8.15536C1.63301 8.09632 1.59864 8.04527 1.569 8.00005C1.74291 7.73293 2.12055 7.22723 2.57563 6.70942C3.03244 6.18792 3.57579 5.64783 4.06311 5.30371C4.69231 4.85855 5.28152 4.52914 5.86118 4.31157C6.44149 4.09418 7.01251 3.98604 7.62353 3.9856C8.23459 3.98604 8.80561 4.09416 9.38592 4.31157C9.96561 4.52917 10.5548 4.85858 11.184 5.30392C11.7784 5.72289 12.4515 6.43191 12.9574 7.0449C13.2113 7.35162 13.4259 7.6352 13.5728 7.84476C13.6141 7.90382 13.6485 7.95487 13.6781 8.00007C13.5042 8.26717 13.1265 8.77286 12.6715 9.29089Z" fill="#C5C5C5"/>
<path d="M7.62352 4.87451C5.89703 4.87451 4.49805 6.27416 4.49805 7.99998C4.49805 9.72625 5.89706 11.1255 7.62352 11.1255C9.34998 11.1255 10.749 9.72628 10.749 7.99998C10.749 6.27415 9.35 4.87451 7.62352 4.87451ZM7.62352 9.45114C6.82213 9.45114 6.17261 8.80137 6.17261 8.00001C6.17261 7.19862 6.82213 6.54932 7.62352 6.54932C7.78118 6.54932 7.93239 6.57505 8.0745 6.62134L7.8712 7.24363C7.81905 7.40239 7.85455 7.57629 7.96441 7.70218C8.07431 7.82742 8.24214 7.8856 8.40607 7.85555L9.04933 7.73677C9.06514 7.822 9.07443 7.91005 9.07443 8.00001C9.07443 8.80137 8.42491 9.45114 7.62352 9.45114Z" fill="#C5C5C5"/>
</g>
<defs>
<clipPath id="clip0_167_37">
<rect width="14" height="14" fill="white" transform="translate(14.4976 15.1237) rotate(-178.979)"/>
</clipPath>
</defs>
</svg>
