<svg width="50" height="50" viewBox="0 0 50 50" fill="none" xmlns="http://www.w3.org/2000/svg">
<path d="M24.9999 1.05078C24.7824 1.05078 24.5658 1.11977 24.3808 1.25977L1.38079 19.2109C0.950786 19.5509 0.870864 20.1791 1.21086 20.6191C1.55086 21.0491 2.17907 21.1291 2.61907 20.7891L3.99993 19.7109V46C3.99993 46.55 4.44993 47 4.99993 47H18.9999V29H30.9999V47H44.9999C45.5499 47 45.9999 46.55 45.9999 46V19.7109L47.3808 20.7891C47.5708 20.9291 47.7799 21 47.9999 21C48.2999 21 48.589 20.8691 48.789 20.6191C49.129 20.1791 49.0491 19.5509 48.6191 19.2109L25.6191 1.25977C25.4341 1.11977 25.2174 1.05078 24.9999 1.05078ZM34.9999 5V6.05078L40.9999 10.7305V5H34.9999Z" fill="#D3D3D3"/>
</svg>
