<svg width="94" height="57" viewBox="0 0 94 57" fill="none" xmlns="http://www.w3.org/2000/svg">
<path d="M83.7426 6.54175L52 28.4675L50.6349 34.9859L45.6993 32.5L10.2698 50.4259L43.3776 27L44 21.5L48.3131 23L83.7426 6.54175Z" fill="white"/>
<path d="M46.8668 51.6064C59.3994 51.6064 69.559 41.096 69.559 28.1307C69.559 15.1655 59.3994 4.65503 46.8668 4.65503C34.3342 4.65503 24.1746 15.1655 24.1746 28.1307C24.1746 41.096 34.3342 51.6064 46.8668 51.6064Z" fill="white"/>
<path d="M46.8666 49.5098C58.2799 49.5098 67.5321 39.9381 67.5321 28.1308C67.5321 16.3235 58.2799 6.75183 46.8666 6.75183C35.4534 6.75183 26.2012 16.3235 26.2012 28.1308C26.2012 39.9381 35.4534 49.5098 46.8666 49.5098Z" fill="black"/>
<path d="M66.5825 28.1076C66.5825 23.8861 65.3173 19.7686 62.9611 16.3219C60.6049 12.8753 57.2738 10.2693 53.4264 8.86274C49.579 7.45617 45.4047 7.31833 41.4784 8.46817C37.5521 9.61799 34.0671 11.999 31.5033 15.2831C28.9395 18.5673 27.4229 22.593 27.1627 26.8058C26.9025 31.0187 27.9113 35.2114 30.0502 38.8064C32.1891 42.4015 35.3528 45.222 39.1057 46.8795C42.8586 48.5371 47.0158 48.95 51.005 48.0616L50.848 47.3072C47.0097 48.1621 43.0095 47.7647 39.3986 46.1699C35.7876 44.575 32.7435 41.8611 30.6854 38.402C28.6274 34.9428 27.6567 30.9086 27.9071 26.8551C28.1575 22.8015 29.6167 18.928 32.0835 15.768C34.5504 12.608 37.9038 10.317 41.6816 9.21062C45.4594 8.10428 49.4759 8.23691 53.1779 9.59027C56.8797 10.9437 60.085 13.4512 62.3521 16.7675C64.6192 20.0838 65.8365 24.0457 65.8365 28.1076H66.5825Z" fill="white"/>
<path d="M29.6019 23.325C28.5539 27.3715 28.8662 31.6665 30.4878 35.5054C32.1095 39.3441 34.944 42.4988 38.5265 44.4519C42.109 46.405 46.2268 47.0406 50.2044 46.2544C54.1819 45.4682 57.7831 43.3068 60.4173 40.1249C63.0514 36.9429 64.562 32.9293 64.7013 28.7425C64.8407 24.5556 63.6004 20.444 61.184 17.0823C58.7676 13.7205 55.3186 11.308 51.4027 10.2407C47.4868 9.17333 43.3365 9.51447 39.6326 11.2081L39.9525 11.9568C43.4923 10.3382 47.4587 10.0122 51.2011 11.0322C54.9435 12.0523 58.2397 14.3578 60.549 17.5706C62.8584 20.7835 64.0437 24.7129 63.9105 28.7143C63.7774 32.7156 62.3337 36.5515 59.8163 39.5924C57.2989 42.6334 53.8573 44.6989 50.0559 45.4504C46.2545 46.2017 42.3192 45.5944 38.8954 43.7278C35.4716 41.8612 32.7626 38.8462 31.2129 35.1775C29.6631 31.5088 29.3646 27.4041 30.3663 23.5368L29.6019 23.325Z" fill="white"/>
<path d="M50.1636 36.1L49.8505 32.2568C49.7948 31.6522 49.6974 31.1485 49.5583 30.7454C49.4192 30.328 49.1896 30.0185 48.8696 29.817C48.5496 29.6011 48.0974 29.5003 47.513 29.5147H45.2799V27.917H47.3878C48.1948 27.917 48.7791 27.6939 49.1409 27.2477C49.5027 26.8015 49.6836 26.1466 49.6836 25.2829C49.6836 24.3905 49.4678 23.714 49.0366 23.2534C48.6192 22.7928 47.9652 22.5625 47.0748 22.5625H45.2799V20.9863H47.4087C48.16 21.0008 48.8279 21.1519 49.4122 21.4397C49.9966 21.7276 50.4558 22.1738 50.7897 22.7784C51.1375 23.3829 51.3114 24.189 51.3114 25.1966C51.3114 26.1034 51.1792 26.8446 50.9149 27.4204C50.6505 27.9818 50.3027 28.4064 49.8714 28.6943C50.2888 28.9102 50.6297 29.2556 50.894 29.7306C51.1723 30.1912 51.3392 30.7526 51.3949 31.4147L51.7497 36.1H50.1636ZM42.5876 36.1V20.9863H44.2573V36.1H42.5876Z" fill="white"/>
</svg>
