<svg width="12" height="12" viewBox="0 0 12 12" fill="none" xmlns="http://www.w3.org/2000/svg">
<g clip-path="url(#clip0_190_158)">
<path d="M10.0796 6.5625L3.56267 6.5625C3.25202 6.5625 3.00017 6.31065 3.00017 6.00001C3.00017 5.68936 3.25202 5.43751 3.56267 5.43751L10.0796 5.43751L9.35229 4.71024C9.13262 4.49056 9.13262 4.13443 9.35229 3.91476C9.57193 3.69508 9.9281 3.69508 10.1478 3.91476L11.8352 5.60221C11.8484 5.61537 11.8608 5.62917 11.8726 5.64357C11.8777 5.64983 11.8822 5.65647 11.887 5.66288C11.8932 5.67113 11.8996 5.67919 11.9053 5.68778C11.9106 5.69562 11.9151 5.70376 11.9199 5.71178C11.9245 5.71951 11.9294 5.72704 11.9336 5.73499C11.938 5.74324 11.9417 5.75172 11.9457 5.76012C11.9496 5.76833 11.9537 5.77643 11.9572 5.78483C11.9606 5.79304 11.9633 5.80141 11.9663 5.80973C11.9696 5.81873 11.973 5.82762 11.9758 5.83681C11.9783 5.84513 11.9801 5.85357 11.9822 5.86201C11.9846 5.87134 11.9872 5.88064 11.9891 5.89017C11.991 5.89988 11.9922 5.90971 11.9936 5.91949C11.9948 5.92786 11.9964 5.9361 11.9972 5.94458C11.999 5.96273 11.9999 5.98099 12 5.99922C12 5.99948 12 5.99978 12 6.00004C12 6.0003 12 6.0006 12 6.00087C11.9999 6.01913 11.999 6.03735 11.9972 6.05554C11.9964 6.0639 11.9948 6.07204 11.9936 6.08033C11.9922 6.09023 11.991 6.10013 11.9891 6.10995C11.9872 6.1194 11.9846 6.12855 11.9823 6.13782C11.9801 6.14633 11.9783 6.15492 11.9757 6.16335C11.973 6.17239 11.9696 6.18113 11.9664 6.18998C11.9634 6.19845 11.9606 6.20697 11.9571 6.21529C11.9537 6.22354 11.9497 6.23145 11.9459 6.23952C11.9418 6.2481 11.938 6.25677 11.9335 6.2652C11.9294 6.27289 11.9247 6.2802 11.9202 6.28767C11.9153 6.29595 11.9106 6.30432 11.9052 6.31238C11.8998 6.32059 11.8937 6.32828 11.8878 6.33619C11.8827 6.34298 11.8779 6.34999 11.8725 6.35659C11.8613 6.37024 11.8494 6.38333 11.837 6.39589C11.8364 6.39649 11.8359 6.39716 11.8353 6.39776L10.1478 8.08529C10.0379 8.19513 9.89401 8.25007 9.75005 8.25007C9.60613 8.25003 9.46213 8.19513 9.35233 8.08533C9.13266 7.86566 9.13266 7.50952 9.35229 7.28985L10.0796 6.5625Z" fill="#D3D3D3"/>
<path d="M0.562548 0.937501L7.6875 0.9375C7.99815 0.9375 8.25 1.18935 8.25 1.5L8.25 3.74998C8.25 4.06063 7.99815 4.31248 7.6875 4.31248C7.37686 4.31248 7.12501 4.06063 7.12501 3.74998L7.12501 2.06249L1.12504 2.06249L1.12505 9.93748L7.12501 9.93748L7.12501 8.24995C7.12501 7.93931 7.37686 7.68746 7.6875 7.68746C7.99815 7.68746 8.25 7.93931 8.25 8.24995L8.25 10.5C8.25 10.8106 7.99815 11.0625 7.6875 11.0625L0.562549 11.0625C0.251901 11.0625 5.24152e-05 10.8106 5.2388e-05 10.5L5.16012e-05 1.5C5.15741e-05 1.18935 0.2519 0.937501 0.562548 0.937501Z" fill="#D3D3D3"/>
</g>
<defs>
<clipPath id="clip0_190_158">
<rect width="12" height="12" fill="white" transform="matrix(-1 8.74228e-08 8.74228e-08 1 12 0)"/>
</clipPath>
</defs>
</svg>
