<svg width="33" height="32" viewBox="0 0 33 32" fill="none" xmlns="http://www.w3.org/2000/svg">
<path d="M24 12C24 18.6274 18.6274 24 12 24C5.37258 24 0 18.6274 0 12C0 5.37258 5.37258 0 12 0C18.6274 0 24 5.37258 24 12ZM0.885802 12C0.885802 18.1382 5.8618 23.1142 12 23.1142C18.1382 23.1142 23.1142 18.1382 23.1142 12C23.1142 5.8618 18.1382 0.885802 12 0.885802C5.8618 0.885802 0.885802 5.8618 0.885802 12Z" fill="#666666"/>
<path d="M30.3534 31.6464C30.744 32.037 31.3771 32.037 31.7677 31.6464C32.1582 31.2559 32.1582 30.6227 31.7677 30.2322L30.3534 31.6464ZM19.3534 20.6464L30.3534 31.6464L31.7677 30.2322L20.7677 19.2322L19.3534 20.6464Z" fill="#666666"/>
</svg>
